<svg width="26" height="25" viewBox="0 0 26 25" fill="none" xmlns="http://www.w3.org/2000/svg">
<path d="M1 1.04546H5.36364L8.28727 15.6527C8.38703 16.155 8.66026 16.6061 9.05914 16.9272C9.45802 17.2483 9.95713 17.4189 10.4691 17.4091H21.0727C21.5847 17.4189 22.0838 17.2483 22.4827 16.9272C22.8816 16.6061 23.1548 16.155 23.2545 15.6527L25 6.5H6.45455M10.8182 22.8636C10.8182 23.4661 10.3298 23.9545 9.72727 23.9545C9.12478 23.9545 8.63636 23.4661 8.63636 22.8636C8.63636 22.2611 9.12478 21.7727 9.72727 21.7727C10.3298 21.7727 10.8182 22.2611 10.8182 22.8636ZM22.8182 22.8636C22.8182 23.4661 22.3298 23.9545 21.7273 23.9545C21.1248 23.9545 20.6364 23.4661 20.6364 22.8636C20.6364 22.2611 21.1248 21.7727 21.7273 21.7727C22.3298 21.7727 22.8182 22.2611 22.8182 22.8636Z" stroke="white" stroke-width="2" stroke-linecap="round" stroke-linejoin="round"/>
</svg>
