<?xml version="1.0" encoding="UTF-8"?>
<svg id="Livello_2" data-name="Livello 2" xmlns="http://www.w3.org/2000/svg" viewBox="0 0 474.3 154.2">
    <defs>
        <style>
            .cls-1 {
            fill-rule: evenodd;
            }

            .cls-1, .cls-2 {
            fill: #fff;
            }

            .cls-1, .cls-2, .cls-3 {
            stroke-width: 0px;
            }

            .cls-3 {
            fill: #001689;
            }
        </style>
    </defs>
    <g id="Livello_1-2" data-name="Livello 1">
        <g>
            <g>
                <path class="cls-3" d="M460,0c7.9,0,14.3,6.4,14.3,14.3v96.5c0,7.9-6.4,14.3-14.3,14.3H14.3c-7.9,0-14.3-6.4-14.3-14.3V14.3C0,6.4,6.4,0,14.3,0h445.7"/>
                <g>
                    <path class="cls-2" d="M422.7,14.4c-20.4,0-36.9,16.5-36.9,36.9s16.5,36.9,36.9,36.9,36.9-16.5,36.9-36.9c.1-20.4-16.5-36.9-36.9-36.9ZM422.7,73.5c-12.2,0-22.2-9.9-22.2-22.2s9.9-22.2,22.2-22.2,22.2,9.9,22.2,22.2-9.9,22.2-22.2,22.2Z"/>
                    <path class="cls-2" d="M134.9,14.4c-7.8-.4-15.1,1.7-21.2,5.5-1.2.7-2.8-.1-2.8-1.5v-2.2c0-1-.8-1.8-1.8-1.8h-11.2c-1,0-1.8.8-1.8,1.8v99.8c0,1,.8,1.8,1.8,1.8h11.2c1,0,1.8-.8,1.8-1.8v-31.7c0-1.4,1.6-2.3,2.8-1.5,5.6,3.5,12.3,5.5,19.4,5.5,21,0,37.9-17.5,36.9-38.7-.8-18.9-16.2-34.3-35.1-35.2ZM134.6,73.4c-13.4.8-24.4-10.2-23.6-23.6.7-11,9.6-20,20.7-20.7,13.4-.8,24.4,10.2,23.6,23.6-.8,11.1-9.7,20-20.7,20.7Z"/>
                    <path class="cls-2" d="M33.7,43.9c-1.3,0-2.2-1.4-1.6-2.6,3.6-7.2,11.1-12.2,19.8-12.2,6.3,0,11.9,2.6,16,6.8.3.4.8.6,1.3.6h13.7c1.4,0,2.2-1.5,1.6-2.7-6.5-12-19.4-20.1-34.1-19.5-18.9.8-34.3,16-35.3,34.9-.1,2.7,0,5.4.4,7.9.1.9.9,1.5,1.8,1.5h52.9c1.3,0,2.2,1.4,1.6,2.6-3.6,7.2-11.1,12.2-19.8,12.2-6.3,0-11.9-2.6-16-6.8-.3-.4-.8-.6-1.3-.6h-13.7c-1.4,0-2.2,1.5-1.6,2.7,6.5,12,19.4,20.1,34.2,19.5,18.9-.8,34.3-16,35.3-34.9.1-2.7,0-5.4-.4-7.9-.1-.9-.9-1.5-1.8-1.5h-53Z"/>
                    <path class="cls-2" d="M347.3,29.1c6.6-.3,12.7,2.4,16.9,6.8.3.4.8.6,1.3.6h13.7c1.4,0,2.2-1.5,1.6-2.7-6.5-12.1-19.5-20.2-34.3-19.5-18.9.9-34.3,16.2-35.1,35.1-1,21.2,15.9,38.7,36.9,38.7,14.1,0,26.3-7.9,32.6-19.5.6-1.2-.2-2.7-1.6-2.7h-13.7c-.5,0-1,.2-1.3.6-4,4.2-9.7,6.8-16,6.8-12.8,0-23-10.8-22.1-23.7.7-11.1,9.9-20,21.1-20.5Z"/>
                    <path class="cls-2" d="M230.1,19.9c-6.1-3.8-13.4-5.8-21.2-5.5-18.9.9-34.2,16.3-35.1,35.2-1,21.2,15.9,38.7,36.9,38.7,7.1,0,13.8-2,19.4-5.5,1.2-.7,2.8.1,2.8,1.5v2.2c0,1,.8,1.8,1.8,1.8h11.2c1,0,1.8-.8,1.8-1.8V16.2c0-1-.8-1.8-1.8-1.8h-11.2c-1,0-1.8.8-1.8,1.8v2.2c0,1.4-1.6,2.2-2.8,1.5ZM210.7,73.5c-12.2,0-22.2-9.9-22.2-22.2s9.9-22.2,22.2-22.2,22.2,9.9,22.2,22.2-10,22.2-22.2,22.2Z"/>
                    <path class="cls-1" d="M118.3,109.5v-13.1c0-.4.3-.7.7-.7h340c.4,0,.7.3.7.7v13.1c0,.4-.3.7-.7.7H119c-.3,0-.7-.3-.7-.7Z"/>
                    <path class="cls-1" d="M14.9,109.7v-13.4c0-.4.3-.7.7-.7h72.5c.4,0,.7.3.7.7v13.4c0,.4-.3.7-.7.7H15.6c-.4,0-.7-.3-.7-.7Z"/>
                    <path class="cls-2" d="M314.4,23.9c.5-.8.2-1.8-.5-2.4-6.1-4.5-13.7-7.2-21.9-7.2-7.1,0-13.8,2-19.4,5.5-1.2.7-2.8-.1-2.8-1.5v-2.2c0-1-.8-1.8-1.8-1.8h-11.2c-1,0-1.8.8-1.8,1.8v70.3c0,1,.8,1.8,1.8,1.8h11.2c1,0,1.8-.8,1.8-1.8v-34.7c0-12.1,9.5-22.3,21.6-22.6,5.5-.1,10.6,1.8,14.6,5,.9.7,2.2.5,2.8-.5l5.6-9.7Z"/>
                </g>
            </g>
            <g>
                <path class="cls-3" d="M20,154.1v-10.6h-5.1v-3.7h14.5v3.7h-5v10.6h-4.4Z"/>
                <path class="cls-3" d="M34,154.1v-14.2h4.4v5.3h5.4v-5.3h4.4v14.2h-4.4v-5.3h-5.4v5.3h-4.4Z"/>
                <path class="cls-3" d="M59.1,145.4h8l-.3,3.1h-7.7v1.9h8.5v3.7h-13v-14.2h12.4v3.7h-8v1.8h.1Z"/>
                <path class="cls-3" d="M94.8,140.1c.5.2.9.4,1.3.8s.6.8.8,1.3c.1.5.2,1.2.2,2v1.4c0,.8-.1,1.5-.2,2-.1.5-.4.9-.8,1.3s-.8.6-1.3.8-1.2.2-2,.2h-5.6v4.3h-4.4v-14.2h10c.8-.2,1.5-.1,2,.1ZM92.7,145.8v-2c0-.2-.1-.3-.3-.3h-5.1v2.6h5.1c.2,0,.3-.1.3-.3Z"/>
                <path class="cls-3" d="M116.2,151.8c-.1.5-.4.9-.8,1.3s-.8.6-1.3.8-1.2.2-2,.2h-5.7c-.8,0-1.4-.1-2-.2-.5-.2-.9-.4-1.3-.8s-.6-.8-.8-1.3c-.1-.5-.2-1.2-.2-2v-5.7c0-.8.1-1.5.2-2,.1-.5.4-.9.8-1.3s.8-.6,1.3-.8,1.2-.2,2-.2h5.7c.8,0,1.4.1,2,.2.5.2.9.4,1.3.8s.6.8.8,1.3c.1.5.2,1.2.2,2v5.7c.1.8,0,1.5-.2,2ZM106.6,143.8v6.3c0,.2.1.3.3.3h4.8c.2,0,.3-.1.3-.3v-6.3c0-.2-.1-.3-.3-.3h-4.8c-.2,0-.3.1-.3.3Z"/>
                <path class="cls-3" d="M126.1,154.1l-6.2-14.3h5l3.4,9.4,1.6-4-1.9-5.4h4.9l3,9.4,3.4-9.4h5l-6.2,14.3h-4.4l-1.5-4-1.6,4h-4.5Z"/>
                <path class="cls-3" d="M153.1,145.4h8l-.3,3.1h-7.7v1.9h8.5v3.7h-13v-14.2h12.4v3.7h-8v1.8h.1Z"/>
                <path class="cls-3" d="M179.3,140.1c.5.2.9.4,1.3.8s.6.8.8,1.3.2,1.1.2,2v1.1c0,.7,0,1.2-.1,1.7s-.3.9-.5,1.2-.5.6-.9.8-.8.4-1.3.5l3.3,4.7h-4.8l-3-4.6h-2.4v4.6h-4.4v-14.2h10c.6-.2,1.3-.1,1.8.1ZM177.2,145.6v-1.8c0-.2-.1-.3-.3-.3h-5.1v2.3h5.1c.2.1.3,0,.3-.2Z"/>
                <path class="cls-3" d="M211.2,151.8c-.1.5-.4.9-.8,1.3s-.8.6-1.3.8-1.2.2-2,.2h-5.7c-.8,0-1.4-.1-2-.2-.5-.2-.9-.4-1.3-.8s-.6-.8-.8-1.3c-.1-.5-.2-1.2-.2-2v-5.7c0-.8.1-1.5.2-2,.1-.5.4-.9.8-1.3s.8-.6,1.3-.8,1.2-.2,2-.2h5.7c.8,0,1.4.1,2,.2.5.2.9.4,1.3.8s.6.8.8,1.3c.1.5.2,1.2.2,2v5.7c0,.8-.1,1.5-.2,2ZM201.6,143.8v6.3c0,.2.1.3.3.3h4.8c.2,0,.3-.1.3-.3v-6.3c0-.2-.1-.3-.3-.3h-4.8c-.2,0-.3.1-.3.3Z"/>
                <path class="cls-3" d="M222.1,145.4h8l-.3,3.4h-7.7v5.3h-4.4v-14.2h12.4v3.7h-8v1.8Z"/>
                <path class="cls-3" d="M257.2,140.1c.5.2.9.4,1.3.8s.6.8.8,1.3c.1.5.2,1.2.2,2v1.4c0,.8-.1,1.5-.2,2-.1.5-.4.9-.8,1.3s-.8.6-1.3.8-1.2.2-2,.2h-5.6v4.3h-4.4v-14.2h10c.8-.2,1.5-.1,2,.1ZM255.1,145.8v-2c0-.2-.1-.3-.3-.3h-5.1v2.6h5.1c.2,0,.3-.1.3-.3Z"/>
                <path class="cls-3" d="M269.2,145.4h8l-.3,3.1h-7.7v1.9h8.5v3.7h-13v-14.2h12.4v3.7h-8v1.8h.1Z"/>
                <path class="cls-3" d="M295.4,140.1c.5.2.9.4,1.3.8s.6.8.8,1.3.2,1.1.2,2v1.1c0,.7-.1,1.2-.1,1.7-.1.5-.3.9-.5,1.2s-.5.6-.9.8-.8.4-1.3.5l3.3,4.7h-4.9l-3-4.6h-2.4v4.6h-4.4v-14.2h10c.7-.2,1.4-.1,1.9.1ZM293.3,145.6v-1.8c0-.2-.1-.3-.3-.3h-5.1v2.3h5.1c.2.1.3,0,.3-.2Z"/>
                <path class="cls-3" d="M308.4,145.4h8l-.3,3.4h-7.7v5.3h-4.4v-14.2h12.4v3.7h-8v1.8Z"/>
                <path class="cls-3" d="M335.9,151.8c-.1.5-.4.9-.8,1.3-.4.4-.8.6-1.3.8s-1.2.2-2,.2h-5.7c-.8,0-1.4-.1-2-.2-.5-.2-.9-.4-1.3-.8-.4-.4-.6-.8-.8-1.3-.1-.5-.2-1.2-.2-2v-5.7c0-.8.1-1.5.2-2s.4-.9.8-1.3c.4-.4.8-.6,1.3-.8s1.2-.2,2-.2h5.7c.8,0,1.4.1,2,.2.5.2.9.4,1.3.8.4.4.6.8.8,1.3.1.5.2,1.2.2,2v5.7c0,.8,0,1.5-.2,2ZM326.3,143.8v6.3c0,.2.1.3.3.3h4.8c.2,0,.3-.1.3-.3v-6.3c0-.2-.1-.3-.3-.3h-4.8c-.2,0-.3.1-.3.3Z"/>
                <path class="cls-3" d="M354.3,140.1c.5.2.9.4,1.3.8.4.4.6.8.8,1.3s.2,1.1.2,2v1.1c0,.7-.1,1.2-.1,1.7-.1.5-.3.9-.5,1.2s-.5.6-.9.8-.8.4-1.3.5l3.3,4.7h-4.9l-3-4.6h-2.4v4.6h-4.4v-14.2h10c.8-.2,1.4-.1,1.9.1ZM352.2,145.6v-1.8c0-.2-.1-.3-.3-.3h-5.1v2.3h5.1c.2.1.3,0,.3-.2Z"/>
                <path class="cls-3" d="M379.5,139.8v14.3h-4.4v-8l-3.9,4.8-3.9-4.8v8h-4.4v-14.3h4.4l3.9,4.9,3.9-4.9h4.4Z"/>
                <path class="cls-3" d="M388.9,154.1h-5l6.5-14.3h4.4l6.5,14.3h-5l-.9-2.1h-5.7l-.8,2.1ZM394.1,148.2l-1.5-3.9-1.5,3.9h3Z"/>
                <path class="cls-3" d="M405.7,154.1v-14.2h4.4l5.4,5.9v-5.9h4.4v14.2h-4.4v-2.6l-5.4-5.9v8.5h-4.4Z"/>
                <path class="cls-3" d="M435.8,143.5h-4.8c-.2,0-.3.1-.3.3v6.3c0,.2.1.3.3.3h4.8c.2,0,.3-.1.3-.3v-.9l4.4.3v.4c0,1.5-.3,2.5-1,3.2-.7.6-1.8,1-3.3,1h-5.7c-.8,0-1.4-.1-2-.2-.5-.2-.9-.4-1.3-.8-.4-.4-.6-.8-.8-1.3-.1-.5-.2-1.2-.2-2v-5.7c0-.8.1-1.5.2-2s.4-.9.8-1.3c.4-.4.8-.6,1.3-.8s1.2-.2,2-.2h5.7c1.5,0,2.6.3,3.3,1,.7.6,1,1.7,1,3.2v.4l-4.4.3v-.9c0-.2-.1-.3-.3-.3Z"/>
                <path class="cls-3" d="M451.2,145.4h8l-.3,3.1h-7.7v1.9h8.5v3.7h-13v-14.2h12.4v3.7h-8v1.8h.1Z"/>
            </g>
        </g>
    </g>
</svg>
