<svg width="26" height="27" viewBox="0 0 26 27" fill="none" xmlns="http://www.w3.org/2000/svg">
<path d="M15.7768 6.93476C15.5454 7.17082 15.4158 7.48819 15.4158 7.81874C15.4158 8.14929 15.5454 8.46666 15.7768 8.70272L17.7973 10.7232C18.0333 10.9546 18.3507 11.0842 18.6813 11.0842C19.0118 11.0842 19.3292 10.9546 19.5652 10.7232L24.3261 5.96238C24.9611 7.36562 25.1534 8.92906 24.8773 10.4443C24.6012 11.9596 23.8699 13.3548 22.7808 14.4439C21.6916 15.533 20.2965 16.2643 18.7812 16.5404C17.2659 16.8165 15.7025 16.6242 14.2992 15.9892L5.5731 24.7154C5.07072 25.2178 4.38934 25.5 3.67886 25.5C2.96838 25.5 2.287 25.2178 1.78462 24.7154C1.28224 24.213 1 23.5316 1 22.8211C1 22.1107 1.28224 21.4293 1.78462 20.9269L10.5108 12.2008C9.87577 10.7975 9.6835 9.23407 9.95959 7.71879C10.2357 6.20351 10.967 4.80835 12.0561 3.71925C13.1452 2.63014 14.5404 1.89881 16.0557 1.62273C17.5709 1.34664 19.1344 1.5389 20.5376 2.1739L15.7894 6.92213L15.7768 6.93476Z" stroke="white" stroke-width="2" stroke-linecap="round" stroke-linejoin="round"/>
</svg>
